<svg width="18" height="16" viewBox="0 0 18 16" fill="none" xmlns="http://www.w3.org/2000/svg">
<path d="M0.599609 4.64547V11.1005C0.599609 12.0285 0.964087 12.9185 1.61286 13.5747C2.26164 14.231 3.14156 14.5996 4.05907 14.5996H13.1402C14.0577 14.5996 14.9376 14.231 15.5864 13.5747C16.2351 12.9185 16.5996 12.0285 16.5996 11.1005V6.12298C16.5996 5.19495 16.2351 4.30494 15.5864 3.64872C14.9376 2.99251 14.0577 2.62385 13.1402 2.62385H8.59961M0.599609 4.64547V3.22395C0.599609 2.52793 0.872968 1.86042 1.35955 1.36826C1.84613 0.876102 2.50607 0.599609 3.1942 0.599609H5.70231C5.98627 0.599556 6.26746 0.656078 6.52982 0.765948C6.79218 0.875818 7.03058 1.03688 7.23139 1.23995L8.59961 2.62473L7.23485 4.00513C7.03404 4.2082 6.79564 4.36926 6.53328 4.47913C6.27092 4.589 5.98973 4.64553 5.70577 4.64547H0.599609Z" stroke="black" stroke-width="1.2" stroke-linejoin="round"/>
</svg>
