<svg width="21" height="20" viewBox="0 0 21 20" fill="none" xmlns="http://www.w3.org/2000/svg">
<path d="M3 5.47966e-09C2.20435 5.47966e-09 1.44129 0.316071 0.87868 0.87868C0.31607 1.44129 0 2.20435 0 3V13.8C0 14.5956 0.31607 15.3587 0.87868 15.9213C1.44129 16.4839 2.20435 16.8 3 16.8H9.12C8.92401 16.4164 8.76606 16.0144 8.6484 15.6H3C2.52261 15.6 2.06477 15.4104 1.72721 15.0728C1.38964 14.7352 1.2 14.2774 1.2 13.8V6H6.1032C6.58043 5.99958 7.03796 5.80966 7.3752 5.472L9.2484 3.6H16.2C16.6774 3.6 17.1352 3.78964 17.4728 4.12721C17.8104 4.46477 18 4.92261 18 5.4V7.92C18.4304 8.1408 18.8304 8.4036 19.2 8.7084V5.4C19.2 4.60435 18.8839 3.84129 18.3213 3.27868C17.7587 2.71607 16.9956 2.4 16.2 2.4H9.2484L7.464 0.6156C7.26896 0.420422 7.03737 0.265594 6.78246 0.159966C6.52755 0.0543376 6.25433 -1.99267e-05 5.9784 5.47966e-09H3ZM1.2 3C1.2 2.52261 1.38964 2.06477 1.72721 1.72721C2.06477 1.38964 2.52261 1.2 3 1.2H5.9784C6.21701 1.20021 6.44578 1.29517 6.6144 1.464L8.1504 3L6.528 4.6248C6.47218 4.68048 6.40593 4.72462 6.33304 4.75468C6.26015 4.78474 6.18205 4.80014 6.1032 4.8H1.2V3ZM20.4 13.8C20.4 15.2322 19.8311 16.6057 18.8184 17.6184C17.8057 18.6311 16.4322 19.2 15 19.2C13.5678 19.2 12.1943 18.6311 11.1816 17.6184C10.1689 16.6057 9.6 15.2322 9.6 13.8C9.6 12.3678 10.1689 10.9943 11.1816 9.98162C12.1943 8.96893 13.5678 8.4 15 8.4C16.4322 8.4 17.8057 8.96893 18.8184 9.98162C19.8311 10.9943 20.4 12.3678 20.4 13.8ZM15.6 11.4C15.6 11.2409 15.5368 11.0883 15.4243 10.9757C15.3117 10.8632 15.1591 10.8 15 10.8C14.8409 10.8 14.6883 10.8632 14.5757 10.9757C14.4632 11.0883 14.4 11.2409 14.4 11.4V13.2H12.6C12.4409 13.2 12.2883 13.2632 12.1757 13.3757C12.0632 13.4883 12 13.6409 12 13.8C12 13.9591 12.0632 14.1117 12.1757 14.2243C12.2883 14.3368 12.4409 14.4 12.6 14.4H14.4V16.2C14.4 16.3591 14.4632 16.5117 14.5757 16.6243C14.6883 16.7368 14.8409 16.8 15 16.8C15.1591 16.8 15.3117 16.7368 15.4243 16.6243C15.5368 16.5117 15.6 16.3591 15.6 16.2V14.4H17.4C17.5591 14.4 17.7117 14.3368 17.8243 14.2243C17.9368 14.1117 18 13.9591 18 13.8C18 13.6409 17.9368 13.4883 17.8243 13.3757C17.7117 13.2632 17.5591 13.2 17.4 13.2H15.6V11.4Z" fill="black"/>
</svg>
