<svg width="20" height="20" viewBox="0 0 20 20" fill="none" xmlns="http://www.w3.org/2000/svg">
<path d="M2.727 1.364C1.974 1.364 1.364 1.974 1.364 2.727V17.273C1.364 18.026 1.974 18.636 2.727 18.636H17.273C18.026 18.636 18.636 18.026 18.636 17.273V2.727C18.636 1.974 18.026 1.364 17.273 1.364H2.727ZM17.273 0C17.9962 0 18.6899 0.287308 19.2013 0.79872C19.7127 1.31013 20 2.00375 20 2.727V17.273C20 17.9962 19.7127 18.6899 19.2013 19.2013C18.6899 19.7127 17.9962 20 17.273 20H2.727C2.00375 20 1.31013 19.7127 0.79872 19.2013C0.287308 18.6899 0 17.9962 0 17.273L0 2.727C0 2.00375 0.287308 1.31013 0.79872 0.79872C1.31013 0.287308 2.00375 0 2.727 0L17.273 0ZM13.955 2.435C13.8654 2.43474 13.7766 2.4522 13.6937 2.48638C13.6108 2.52056 13.5355 2.57078 13.4722 2.63416C13.4088 2.69755 13.3586 2.77283 13.3244 2.8557C13.2902 2.93856 13.2727 3.02736 13.273 3.117V5C13.273 5.18088 13.3449 5.35435 13.4728 5.48225C13.6007 5.61015 13.7741 5.682 13.955 5.682C14.1359 5.682 14.3093 5.61015 14.4372 5.48225C14.5651 5.35435 14.637 5.18088 14.637 5V3.117C14.6373 3.02736 14.6198 2.93856 14.5856 2.8557C14.5514 2.77283 14.5012 2.69755 14.4378 2.63416C14.3745 2.57078 14.2992 2.52056 14.2163 2.48638C14.1334 2.4522 14.0446 2.43474 13.955 2.435ZM2.744 0.94L4.107 0.946L4.086 5.392C4.056 5.798 4.186 6.126 4.501 6.429C4.814 6.73 5.245 6.867 5.885 6.829L14.51 6.833C14.992 6.778 15.331 6.62 15.56 6.364C15.788 6.107 15.906 5.761 15.905 5.291V0.942H17.269V5.289C17.27 6.078 17.042 6.749 16.577 7.271C16.112 7.793 15.463 8.096 14.587 8.191H5.927C4.968 8.25 4.162 7.994 3.556 7.411C2.952 6.831 2.666 6.107 2.724 5.339L2.744 0.94Z" fill="black"/>
</svg>
