<svg width="12" height="14" viewBox="0 0 12 14" fill="none" xmlns="http://www.w3.org/2000/svg">
<path d="M11.4746 5.97852L11.4961 5.99902C11.4978 6.00531 11.5 6.01151 11.5 6.01758C11.5 6.03595 11.4928 6.05631 11.4756 6.07324C11.4578 6.09067 11.4309 6.10242 11.4004 6.10254C11.3853 6.10259 11.3711 6.09975 11.3584 6.09473L11.3252 6.07324L6.97656 1.86816L6.12891 1.04883V13.415C6.12891 13.4334 6.12185 13.4538 6.10449 13.4707C6.0867 13.488 6.05974 13.5 6.0293 13.5C5.99896 13.4999 5.97184 13.488 5.9541 13.4707C5.93693 13.4538 5.92969 13.4333 5.92969 13.415V1.04883L5.08203 1.86816L0.734375 6.07324L0.707031 6.09961L0.683594 6.13086C0.676109 6.14072 0.66534 6.1502 0.652344 6.15723C0.639395 6.16414 0.624299 6.16871 0.608398 6.16992C0.592317 6.17114 0.57612 6.16828 0.561523 6.16309C0.547225 6.15795 0.534881 6.15063 0.525391 6.1416C0.515826 6.13241 0.508892 6.12158 0.504883 6.11133C0.500923 6.10116 0.499336 6.09023 0.5 6.08008C0.500724 6.07002 0.504288 6.05977 0.509766 6.0498C0.515306 6.03977 0.523111 6.02976 0.53418 6.02148L0.560547 6.00195L0.584961 5.97852L6.0293 0.695312L11.4746 5.97852Z" fill="black" stroke="black"/>
</svg>
