<svg xmlns="http://www.w3.org/2000/svg" width="12" height="14" viewBox="0 0 12 14" fill="none">
    <path
        d="M0.000362547 7.00206C0.000362547 5.08607 -0.000856013 3.16966 0.00117492 1.25367C0.00158111 0.62342 0.351714 0.150627 0.909002 0.0256894C1.01177 0.00258454 1.12022 0.00130094 1.22623 0.00130094C4.20114 1.73365e-05 7.17605 -0.000410531 10.151 0.000445204C10.8992 0.000445204 11.3744 0.502333 11.3744 1.29303C11.3752 5.09891 11.3744 8.90436 11.3748 12.7102C11.3748 13.2177 11.1851 13.6169 10.7485 13.8484C10.3073 14.082 9.88816 14.008 9.49619 13.6969C8.31053 12.7564 7.12203 11.8203 5.93515 10.882C5.73206 10.7215 5.72394 10.7215 5.51597 10.8845C4.30472 11.8335 3.08738 12.7736 1.88426 13.7337C1.16368 14.3088 0.186802 13.8933 0.0247337 13.053C0.00279967 12.9391 0.00117492 12.8198 0.00117492 12.703C-4.36398e-05 10.8024 0.000362547 8.90222 0.000362547 7.00206ZM0.987802 6.98623C0.987802 8.87612 0.987802 10.766 0.987802 12.6559C0.987802 12.7094 0.98374 12.7637 0.991864 12.8159C1.0142 12.9657 1.14093 13.0269 1.2636 12.9481C1.30666 12.9203 1.34565 12.8857 1.38627 12.854C2.57193 11.9217 3.75718 10.9894 4.94284 10.057C5.48754 9.62874 5.97171 9.62831 6.51275 10.0562C7.70004 10.9945 8.88732 11.9328 10.075 12.8707C10.1502 12.9302 10.2346 13.0307 10.3264 12.9443C10.3866 12.8878 10.4276 12.7757 10.4292 12.6876C10.4381 12.095 10.4337 11.5024 10.4337 10.9098C10.4337 7.7119 10.4337 4.51402 10.4337 1.31614C10.4337 1.06883 10.3979 1.02519 10.1977 1.02519C7.22723 1.02519 4.25679 1.02519 1.28635 1.02519C1.01014 1.02519 0.987802 1.04958 0.987802 1.34865C0.987802 3.22785 0.987802 5.10704 0.987802 6.98623Z"
        fill="white" />
</svg>