<svg width="20" height="26" viewBox="0 0 20 26" fill="none" xmlns="http://www.w3.org/2000/svg">
<path d="M3.633 25.125H16.078C18.504 25.125 19.711 23.8945 19.711 21.457V10.8165C19.711 9.3045 19.547 8.6485 18.6095 7.6875L12.1405 1.1135C11.2505 0.199 10.5235 0 9.1995 0H3.633C1.219 0 0 1.242 0 3.68V21.457C0 23.906 1.219 25.125 3.633 25.125ZM3.7265 23.2385C2.5195 23.2385 1.8865 22.5935 1.8865 21.422V3.715C1.8865 2.555 2.5195 1.8865 3.7385 1.8865H8.9415V8.6955C8.9415 10.172 9.6915 10.8985 11.1445 10.8985H17.8245V21.422C17.8245 22.5935 17.203 23.2385 15.9845 23.2385H3.7265ZM11.3555 9.1285C10.8985 9.1285 10.7105 8.9415 10.7105 8.4725V2.25L17.4605 9.129L11.3555 9.1285ZM14.168 14.121H5.273C4.8515 14.121 4.547 14.4375 4.547 14.836C4.547 15.246 4.852 15.5625 5.2735 15.5625H14.168C14.2638 15.5641 14.359 15.5463 14.4478 15.5104C14.5367 15.4744 14.6174 15.4209 14.6852 15.3532C14.7529 15.2854 14.8064 15.2047 14.8424 15.1158C14.8783 15.027 14.8961 14.9318 14.8945 14.836C14.8945 14.4375 14.578 14.121 14.168 14.121ZM14.168 18.211H5.273C4.8515 18.211 4.547 18.539 4.547 18.949C4.547 19.3475 4.852 19.6525 5.2735 19.6525H14.168C14.578 19.6525 14.8945 19.3475 14.8945 18.949C14.8945 18.539 14.578 18.211 14.168 18.211Z" fill="black"/>
</svg>
