<svg xmlns="http://www.w3.org/2000/svg" width="14" height="14" viewBox="0 0 14 14" fill="none">
  <path
    d="M7.00233 14C6.03478 14 5.12478 13.8164 4.27233 13.4493C3.42041 13.0817 2.67919 12.5829 2.04867 11.9529C1.41815 11.3229 0.919074 10.5824 0.551445 9.73155C0.183815 8.88067 0 7.97092 0 7.00233C0 6.03374 0.183815 5.12374 0.551445 4.27233C0.918556 3.42041 1.41659 2.67918 2.04556 2.04867C2.67452 1.41815 3.41522 0.919074 4.26767 0.551444C5.12011 0.183815 6.03011 0 6.99767 0C7.96522 0 8.87522 0.183815 9.72767 0.551444C10.5796 0.918555 11.3208 1.41685 11.9513 2.04633C12.5819 2.67581 13.0809 3.41652 13.4486 4.26844C13.8162 5.12037 14 6.03011 14 6.99767C14 7.96522 13.8164 8.87522 13.4493 9.72766C13.0822 10.5801 12.5834 11.3213 11.9529 11.9513C11.3224 12.5813 10.5819 13.0804 9.73156 13.4486C8.88119 13.8167 7.97144 14.0005 7.00233 14ZM7.38889 13.209C8.99111 13.1043 10.3639 12.4667 11.5072 11.2964C12.6506 10.1261 13.2222 8.694 13.2222 7C13.2222 5.306 12.6557 3.87878 11.5228 2.71833C10.3898 1.55789 9.01185 0.915444 7.38889 0.791V13.209Z"
    fill="white" />
</svg>