<svg width="14" height="16" viewBox="0 0 14 16" fill="none" xmlns="http://www.w3.org/2000/svg">
<path fill-rule="evenodd" clip-rule="evenodd" d="M9.03125 5.36357e-08H6.15825C4.85633 5.36357e-08 3.825 5.27749e-08 3.01821 0.108375C2.18804 0.220292 1.51583 0.455458 0.985292 0.985292C0.455458 1.51583 0.220292 2.18804 0.108375 3.01821C1.37215e-07 3.82571 5.36357e-08 4.85633 5.36357e-08 6.15825V10.4479C-0.000127068 11.0808 0.225717 11.6929 0.636861 12.1741C1.048 12.6552 1.61743 12.9737 2.24258 13.0723C2.33962 13.6135 2.52733 14.0753 2.90275 14.4514C3.32917 14.8778 3.86608 15.0606 4.50358 15.147C5.11771 15.2292 5.899 15.2292 6.86729 15.2292H9.07021C10.0385 15.2292 10.8198 15.2292 11.4339 15.147C12.0714 15.0606 12.6083 14.8778 13.0347 14.4514C13.4612 14.025 13.6439 13.4881 13.7303 12.8506C13.8125 12.2365 13.8125 11.4552 13.8125 10.4869V6.86729C13.8125 5.899 13.8125 5.11771 13.7303 4.50358C13.6439 3.86608 13.4612 3.32917 13.0347 2.90275C12.6586 2.52733 12.1968 2.33962 11.6556 2.24258C11.5571 1.61743 11.2385 1.048 10.7574 0.636861C10.2763 0.225717 9.66413 -0.000127068 9.03125 5.36357e-08ZM10.54 2.13987C10.4323 1.82537 10.2289 1.55243 9.9584 1.35924C9.68786 1.16605 9.36368 1.0623 9.03125 1.0625H6.19792C4.84713 1.0625 3.88804 1.06392 3.15917 1.16167C2.44729 1.25729 2.03646 1.43721 1.73683 1.73683C1.43721 2.03646 1.25729 2.44729 1.16167 3.15917C1.06392 3.88804 1.0625 4.84713 1.0625 6.19792V10.4479C1.0623 10.7803 1.16605 11.1045 1.35924 11.3751C1.55243 11.6456 1.82537 11.849 2.13987 11.9567C2.125 11.5246 2.125 11.0358 2.125 10.4869V6.86729C2.125 5.899 2.125 5.11771 2.20788 4.50358C2.29288 3.86608 2.47704 3.32917 2.90275 2.90275C3.32917 2.47633 3.86608 2.29358 4.50358 2.20788C5.11771 2.125 5.899 2.125 6.86729 2.125H9.07021C9.61917 2.125 10.1079 2.125 10.54 2.13987ZM3.65358 3.655C3.84979 3.45879 4.12462 3.33129 4.64525 3.26117C5.17933 3.18963 5.88908 3.18821 6.90554 3.18821H9.03054C10.047 3.18821 10.756 3.18963 11.2915 3.26117C11.8115 3.33129 12.0863 3.4595 12.2825 3.655C12.4787 3.85121 12.6062 4.12604 12.6763 4.64667C12.7479 5.18075 12.7493 5.8905 12.7493 6.90696V10.4486C12.7493 11.4651 12.7479 12.1741 12.6763 12.7096C12.6062 13.2295 12.478 13.5044 12.2825 13.7006C12.0863 13.8968 11.8115 14.0243 11.2908 14.0944C10.756 14.166 10.047 14.1674 9.03054 14.1674H6.90554C5.88908 14.1674 5.17933 14.166 4.64454 14.0944C4.12463 14.0243 3.84979 13.8961 3.65358 13.7006C3.45737 13.5044 3.32987 13.2295 3.25975 12.7089C3.18821 12.1741 3.18679 11.4651 3.18679 10.4486V6.90696C3.18679 5.8905 3.18821 5.18075 3.25975 4.64596C3.32987 4.12604 3.45808 3.85121 3.65358 3.655Z" fill="black"/>
</svg>
