<svg xmlns="http://www.w3.org/2000/svg" width="14" height="14" viewBox="0 0 14 14" fill="none">
  <path fill-rule="evenodd" clip-rule="evenodd"
    d="M8.75 0.729492H6.384C5.31183 0.729492 4.4625 0.729492 3.79808 0.818742C3.11442 0.910909 2.56083 1.10458 2.12392 1.54091C1.68758 1.97783 1.49392 2.53141 1.40175 3.21508C1.3125 3.88008 1.3125 4.72883 1.3125 5.80099V9.33366C1.3124 9.85485 1.49838 10.359 1.83697 10.7552C2.17556 11.1514 2.6445 11.4137 3.15933 11.4949C3.23925 11.9406 3.39383 12.3209 3.703 12.6307C4.05417 12.9818 4.49633 13.1323 5.02133 13.2035C5.52708 13.2712 6.1705 13.2712 6.96792 13.2712H8.78208C9.5795 13.2712 10.2229 13.2712 10.7287 13.2035C11.2537 13.1323 11.6958 12.9818 12.047 12.6307C12.3982 12.2795 12.5487 11.8373 12.6198 11.3123C12.6875 10.8066 12.6875 10.1632 12.6875 9.36574V6.38491C12.6875 5.58749 12.6875 4.94408 12.6198 4.43833C12.5487 3.91333 12.3982 3.47116 12.047 3.11999C11.7373 2.81083 11.3569 2.65624 10.9112 2.57633C10.8301 2.06149 10.5678 1.59255 10.1715 1.25397C9.7753 0.915377 9.27119 0.729388 8.75 0.729492ZM9.9925 2.49174C9.9038 2.23274 9.73633 2.00796 9.51353 1.84887C9.29074 1.68977 9.02377 1.60433 8.75 1.60449H6.41667C5.30425 1.60449 4.51442 1.60566 3.91417 1.68616C3.32792 1.76491 2.98958 1.91308 2.74283 2.15983C2.49608 2.40658 2.34792 2.74491 2.26917 3.33116C2.18867 3.93141 2.1875 4.72124 2.1875 5.83366V9.33366C2.18733 9.60743 2.27278 9.8744 2.43187 10.0972C2.59097 10.32 2.81575 10.4875 3.07475 10.5762C3.0625 10.2203 3.0625 9.81783 3.0625 9.36574V6.38491C3.0625 5.58749 3.0625 4.94408 3.13075 4.43833C3.20075 3.91333 3.35242 3.47116 3.703 3.11999C4.05417 2.76883 4.49633 2.61833 5.02133 2.54774C5.52708 2.47949 6.1705 2.47949 6.96792 2.47949H8.78208C9.23417 2.47949 9.63667 2.47949 9.9925 2.49174ZM4.32133 3.73949C4.48292 3.57791 4.70925 3.47291 5.138 3.41516C5.57783 3.35624 6.16233 3.35508 6.99942 3.35508H8.74942C9.5865 3.35508 10.1704 3.35624 10.6114 3.41516C11.0396 3.47291 11.2659 3.57849 11.4275 3.73949C11.5891 3.90108 11.6941 4.12741 11.7518 4.55616C11.8108 4.99599 11.8119 5.58049 11.8119 6.41758V9.33424C11.8119 10.1713 11.8108 10.7552 11.7518 11.1962C11.6941 11.6244 11.5885 11.8507 11.4275 12.0123C11.2659 12.1739 11.0396 12.2789 10.6108 12.3367C10.1704 12.3956 9.5865 12.3967 8.74942 12.3967H6.99942C6.16233 12.3967 5.57783 12.3956 5.13742 12.3367C4.70925 12.2789 4.48292 12.1733 4.32133 12.0123C4.15975 11.8507 4.05475 11.6244 3.997 11.1957C3.93808 10.7552 3.93692 10.1713 3.93692 9.33424V6.41758C3.93692 5.58049 3.93808 4.99599 3.997 4.55558C4.05475 4.12741 4.16033 3.90108 4.32133 3.73949Z"
    fill="white" />
</svg>