<svg width="18" height="17" viewBox="0 0 18 17" fill="none" xmlns="http://www.w3.org/2000/svg">
<path d="M11.5 10.5L11.007 10.582C10.9951 10.5104 10.9989 10.4371 11.0182 10.3671C11.0375 10.2971 11.0718 10.2322 11.1187 10.1768C11.1656 10.1214 11.224 10.0769 11.2899 10.0464C11.3557 10.0159 11.4274 10 11.5 10V10.5ZM0.5 10.5V11C0.367392 11 0.240215 10.9473 0.146447 10.8536C0.0526785 10.7598 0 10.6326 0 10.5H0.5ZM2.5 0H13.86V1H2.5V0ZM15.06 11H11.5V10H15.06V11ZM11.993 10.418L12.799 15.253L11.813 15.418L11.007 10.582L11.993 10.418ZM11.32 17H11.107V16H11.32V17ZM8.194 15.441L5.678 11.668L6.51 11.113L9.025 14.887L8.194 15.441ZM4.43 11H0.5V10H4.43V11ZM0 10.5V2.5H1V10.5H0ZM16.312 2.01L17.512 8.01L16.532 8.206L15.332 2.206L16.312 2.01ZM5.678 11.668C5.54103 11.4625 5.35546 11.2941 5.13775 11.1775C4.92004 11.061 4.67693 11 4.43 11V10C4.84153 9.99999 5.24669 10.1016 5.60954 10.2957C5.97238 10.4899 6.28169 10.7706 6.51 11.113L5.678 11.668ZM12.799 15.253C12.8349 15.4679 12.8235 15.688 12.7657 15.898C12.7079 16.108 12.6051 16.3029 12.4643 16.4692C12.3236 16.6355 12.1483 16.7691 11.9507 16.8607C11.753 16.9524 11.5378 16.9999 11.32 17V16C11.3927 16.0001 11.4645 15.9844 11.5304 15.9539C11.5964 15.9234 11.6549 15.879 11.702 15.8236C11.749 15.7682 11.7834 15.7032 11.8027 15.6331C11.8221 15.5631 11.8259 15.4897 11.814 15.418L12.799 15.253ZM15.06 10C15.2819 10 15.5011 9.95079 15.7017 9.85587C15.9023 9.76094 16.0793 9.6227 16.22 9.45109C16.3607 9.27948 16.4616 9.07879 16.5154 8.86348C16.5692 8.64817 16.5755 8.42362 16.532 8.206L17.512 8.01C17.5845 8.37256 17.5746 8.74667 17.4851 9.1054C17.3955 9.46412 17.2276 9.79852 16.9932 10.0845C16.7589 10.3705 16.464 10.6009 16.1299 10.7592C15.7958 10.9175 15.4307 10.9998 15.061 11L15.06 10ZM13.86 0C14.4381 -0.000112534 14.9983 0.200108 15.4454 0.566584C15.8925 0.93306 16.1987 1.44314 16.312 2.01L15.332 2.206C15.264 1.86575 15.0801 1.5596 14.8117 1.3397C14.5433 1.1198 14.207 0.999746 13.86 1V0ZM11.106 17C10.5296 17.0001 9.96214 16.8578 9.45397 16.5859C8.94579 16.3139 8.51264 15.9206 8.193 15.441L9.025 14.887C9.25331 15.2294 9.56262 15.5101 9.92546 15.7043C10.2883 15.8984 10.6935 16 11.105 16L11.106 17ZM2.5 1C2.10218 1 1.72064 1.15804 1.43934 1.43934C1.15804 1.72064 1 2.10218 1 2.5H0C0 2.1717 0.0646644 1.84661 0.190301 1.54329C0.315938 1.23998 0.500087 0.96438 0.732233 0.732233C0.964379 0.500086 1.23998 0.315939 1.54329 0.190302C1.84661 0.0646648 2.1717 0 2.5 0V1Z" fill="black"/>
<path d="M4.5 10.5V0.5" stroke="black"/>
</svg>
