<svg xmlns="http://www.w3.org/2000/svg" width="16" height="16" viewBox="0 0 16 16" fill="none">
    <path
        d="M8 10C7.60444 10 7.21776 9.8827 6.88886 9.66294C6.55996 9.44318 6.30362 9.13082 6.15224 8.76537C6.00087 8.39992 5.96126 7.99778 6.03843 7.60982C6.1156 7.22186 6.30608 6.86549 6.58579 6.58579C6.86549 6.30608 7.22186 6.1156 7.60982 6.03843C7.99778 5.96126 8.39992 6.00087 8.76537 6.15224C9.13082 6.30362 9.44318 6.55996 9.66294 6.88886C9.8827 7.21776 10 7.60444 10 8C9.99934 8.53023 9.78841 9.03855 9.41348 9.41348C9.03855 9.78841 8.53023 9.99934 8 10ZM8 7C7.80222 7 7.60888 7.05865 7.44443 7.16853C7.27998 7.27841 7.15181 7.43459 7.07612 7.61732C7.00043 7.80004 6.98063 8.00111 7.01922 8.19509C7.0578 8.38907 7.15304 8.56726 7.29289 8.70711C7.43275 8.84696 7.61093 8.9422 7.80491 8.98079C7.99889 9.01937 8.19996 8.99957 8.38268 8.92388C8.56541 8.84819 8.72159 8.72002 8.83147 8.55557C8.94135 8.39112 9 8.19778 9 8C9 7.73478 8.89464 7.48043 8.70711 7.29289C8.51957 7.10536 8.26522 7 8 7Z"
        fill="black" />
    <path
        d="M7.99999 12C6.864 11.9696 5.76748 11.5768 4.87062 10.8789C3.97376 10.1811 3.32356 9.2147 3.01499 8.121L2.98499 8L3.01499 7.879C3.32356 6.7853 3.97376 5.81893 4.87062 5.12105C5.76748 4.42317 6.864 4.03036 7.99999 4C9.13597 4.03036 10.2325 4.42317 11.1293 5.12105C12.0262 5.81893 12.6764 6.7853 12.985 7.879L13.015 8L12.985 8.121C12.6764 9.2147 12.0262 10.1811 11.1293 10.8789C10.2325 11.5768 9.13597 11.9696 7.99999 12ZM4.01749 8C4.2873 8.85186 4.81581 9.5985 5.52953 10.1361C6.24325 10.6738 7.10675 10.9757 7.99999 11C8.89323 10.9757 9.75672 10.6738 10.4704 10.1361C11.1842 9.5985 11.7127 8.85186 11.9825 8C11.7127 7.14814 11.1842 6.4015 10.4704 5.86385C9.75672 5.32621 8.89323 5.02427 7.99999 5C7.10675 5.02427 6.24325 5.32621 5.52953 5.86385C4.81581 6.4015 4.2873 7.14814 4.01749 8Z"
        fill="black" />
    <path
        d="M8 15C6.61553 15 5.26216 14.5895 4.11101 13.8203C2.95987 13.0511 2.06266 11.9579 1.53285 10.6788C1.00303 9.3997 0.86441 7.99224 1.13451 6.63437C1.4046 5.2765 2.07129 4.02922 3.05026 3.05026C4.02922 2.07129 5.2765 1.4046 6.63437 1.13451C7.99224 0.86441 9.3997 1.00303 10.6788 1.53285C11.9579 2.06266 13.0511 2.95987 13.8203 4.11101C14.5895 5.26216 15 6.61553 15 8C14.9979 9.85587 14.2597 11.6351 12.9474 12.9474C11.6351 14.2597 9.85587 14.9979 8 15ZM8 2C6.81332 2 5.65328 2.3519 4.66658 3.01119C3.67989 3.67047 2.91085 4.60755 2.45673 5.7039C2.0026 6.80026 1.88378 8.00666 2.11529 9.17054C2.3468 10.3344 2.91825 11.4035 3.75736 12.2426C4.59648 13.0818 5.66558 13.6532 6.82946 13.8847C7.99335 14.1162 9.19975 13.9974 10.2961 13.5433C11.3925 13.0892 12.3295 12.3201 12.9888 11.3334C13.6481 10.3467 14 9.18669 14 8C13.9981 6.40927 13.3654 4.88423 12.2406 3.75941C11.1158 2.63459 9.59073 2.00186 8 2Z"
        fill="black" />
</svg>