<svg xmlns="http://www.w3.org/2000/svg" width="22" height="16" viewBox="0 0 22 16" fill="none">
    <path
        d="M20.294 6.795C20.598 7.221 20.75 7.435 20.75 7.75C20.75 8.066 20.598 8.279 20.294 8.705C18.928 10.621 15.439 14.75 10.75 14.75C6.06 14.75 2.572 10.62 1.206 8.705C0.902 8.279 0.75 8.065 0.75 7.75C0.75 7.434 0.902 7.221 1.206 6.795C2.572 4.879 6.061 0.75 10.75 0.75C15.44 0.75 18.928 4.88 20.294 6.795Z"
        stroke="black" stroke-width="1.5" />
    <path
        d="M13.75 7.75C13.75 6.95435 13.4339 6.19129 12.8713 5.62868C12.3087 5.06607 11.5456 4.75 10.75 4.75C9.95435 4.75 9.19129 5.06607 8.62868 5.62868C8.06607 6.19129 7.75 6.95435 7.75 7.75C7.75 8.54565 8.06607 9.30871 8.62868 9.87132C9.19129 10.4339 9.95435 10.75 10.75 10.75C11.5456 10.75 12.3087 10.4339 12.8713 9.87132C13.4339 9.30871 13.75 8.54565 13.75 7.75Z"
        stroke="black" stroke-width="1.5" />
</svg>