<svg xmlns="http://www.w3.org/2000/svg" width="16" height="14" viewBox="0 0 16 14" fill="none">
  <path
    d="M16 2.33333H13.6571C13.3714 0.991667 12.2286 0 10.8571 0C9.48571 0 8.34286 0.991667 8.05714 2.33333H0V3.5H8.05714C8.34286 4.84167 9.48571 5.83333 10.8571 5.83333C12.2286 5.83333 13.3714 4.84167 13.6571 3.5H16V2.33333ZM10.8571 4.66667C9.88571 4.66667 9.14286 3.90833 9.14286 2.91667C9.14286 1.925 9.88571 1.16667 10.8571 1.16667C11.8286 1.16667 12.5714 1.925 12.5714 2.91667C12.5714 3.90833 11.8286 4.66667 10.8571 4.66667ZM0 11.6667H2.34286C2.62857 13.0083 3.77143 14 5.14286 14C6.51429 14 7.65714 13.0083 7.94286 11.6667H16V10.5H7.94286C7.65714 9.15833 6.51429 8.16667 5.14286 8.16667C3.77143 8.16667 2.62857 9.15833 2.34286 10.5H0V11.6667ZM5.14286 9.33333C6.11429 9.33333 6.85714 10.0917 6.85714 11.0833C6.85714 12.075 6.11429 12.8333 5.14286 12.8333C4.17143 12.8333 3.42857 12.075 3.42857 11.0833C3.42857 10.0917 4.17143 9.33333 5.14286 9.33333Z"
    fill="white" />
</svg>