<svg width="18" height="18" viewBox="0 0 18 18" fill="none" xmlns="http://www.w3.org/2000/svg">
<path d="M2 18C1.45 18 0.979333 17.8043 0.588 17.413C0.196667 17.0217 0.000666667 16.5507 0 16V2C0 1.45 0.196 0.979333 0.588 0.588C0.98 0.196667 1.45067 0.000666667 2 0H16C16.55 0 17.021 0.196 17.413 0.588C17.805 0.98 18.0007 1.45067 18 2V16C18 16.55 17.8043 17.021 17.413 17.413C17.0217 17.805 16.5507 18.0007 16 18H2ZM2 16H16V2H2V16ZM4 14H14C14.2 14 14.35 13.9083 14.45 13.725C14.55 13.5417 14.5333 13.3667 14.4 13.2L11.65 9.525C11.55 9.39167 11.4167 9.325 11.25 9.325C11.0833 9.325 10.95 9.39167 10.85 9.525L8.25 13L6.4 10.525C6.3 10.3917 6.16667 10.325 6 10.325C5.83333 10.325 5.7 10.3917 5.6 10.525L3.6 13.2C3.46667 13.3667 3.45 13.5417 3.55 13.725C3.65 13.9083 3.8 14 4 14Z" fill="black"/>
</svg>
