<svg width="18" height="17" viewBox="0 0 18 17" fill="none" xmlns="http://www.w3.org/2000/svg">
<path d="M11.5 6.5L11.007 6.418C10.9951 6.4896 10.9989 6.56293 11.0182 6.6329C11.0375 6.70287 11.0718 6.7678 11.1187 6.82318C11.1656 6.87856 11.224 6.92306 11.2899 6.9536C11.3557 6.98413 11.4274 6.99997 11.5 7V6.5ZM0.5 6.5V6C0.367392 6 0.240215 6.05268 0.146447 6.14645C0.0526785 6.24021 0 6.36739 0 6.5H0.5ZM2.5 17H13.86V16H2.5V17ZM15.06 6H11.5V7H15.06V6ZM11.993 6.582L12.799 1.747L11.813 1.582L11.007 6.418L11.993 6.582ZM11.32 3.91646e-08H11.107V1H11.32V3.91646e-08ZM8.194 1.559L5.678 5.332L6.51 5.887L9.025 2.113L8.194 1.559ZM4.43 6H0.5V7H4.43V6ZM0 6.5V14.5H1V6.5H0ZM16.312 14.99L17.512 8.99L16.532 8.794L15.332 14.794L16.312 14.99ZM5.678 5.332C5.54103 5.53747 5.35546 5.70594 5.13775 5.82247C4.92004 5.939 4.67693 5.99998 4.43 6V7C4.84153 7.00001 5.24669 6.89842 5.60954 6.70427C5.97238 6.51011 6.28169 6.22938 6.51 5.887L5.678 5.332ZM12.799 1.747C12.8349 1.53214 12.8235 1.31203 12.7657 1.102C12.7079 0.891973 12.6051 0.697052 12.4643 0.530793C12.3236 0.364534 12.1483 0.230927 11.9507 0.139263C11.753 0.0475986 11.5378 7.61222e-05 11.32 3.91646e-08V1C11.3927 0.999888 11.4645 1.01562 11.5304 1.04609C11.5964 1.07656 11.6549 1.12104 11.702 1.17644C11.749 1.23184 11.7834 1.29682 11.8027 1.36686C11.8221 1.4369 11.8259 1.51032 11.814 1.582L12.799 1.747ZM15.06 7C15.2819 6.99999 15.5011 7.04921 15.7017 7.14413C15.9023 7.23906 16.0793 7.3773 16.22 7.54891C16.3607 7.72052 16.4616 7.92121 16.5154 8.13652C16.5692 8.35183 16.5755 8.57638 16.532 8.794L17.512 8.99C17.5845 8.62744 17.5746 8.25333 17.4851 7.8946C17.3955 7.53588 17.2276 7.20148 16.9932 6.9155C16.7589 6.62951 16.464 6.39907 16.1299 6.24076C15.7958 6.08245 15.4307 6.00022 15.061 6L15.06 7ZM13.86 17C14.4381 17.0001 14.9983 16.7999 15.4454 16.4334C15.8925 16.0669 16.1987 15.5569 16.312 14.99L15.332 14.794C15.264 15.1343 15.0801 15.4404 14.8117 15.6603C14.5433 15.8802 14.207 16.0003 13.86 16V17ZM11.106 3.91646e-08C10.5296 -8.61765e-05 9.96214 0.142173 9.45397 0.414143C8.94579 0.686113 8.51264 1.07937 8.193 1.559L9.025 2.113C9.25331 1.77062 9.56262 1.48989 9.92546 1.29573C10.2883 1.10158 10.6935 0.999993 11.105 1L11.106 3.91646e-08ZM2.5 16C2.10218 16 1.72064 15.842 1.43934 15.5607C1.15804 15.2794 1 14.8978 1 14.5H0C0 14.8283 0.0646644 15.1534 0.190301 15.4567C0.315938 15.76 0.500087 16.0356 0.732233 16.2678C0.964379 16.4999 1.23998 16.6841 1.54329 16.8097C1.84661 16.9353 2.1717 17 2.5 17V16Z" fill="black"/>
<path d="M4.5 6.5V16.5" stroke="black"/>
</svg>
