<svg xmlns="http://www.w3.org/2000/svg" width="10" height="14" viewBox="0 0 10 14" fill="none">
    <path
        d="M8.75 4.66667H8.125V3.33333C8.125 1.49333 6.725 0 5 0C3.275 0 1.875 1.49333 1.875 3.33333V4.66667H1.25C0.5625 4.66667 0 5.26667 0 6V12.6667C0 13.4 0.5625 14 1.25 14H8.75C9.4375 14 10 13.4 10 12.6667V6C10 5.26667 9.4375 4.66667 8.75 4.66667ZM3.125 3.33333C3.125 2.22667 3.9625 1.33333 5 1.33333C6.0375 1.33333 6.875 2.22667 6.875 3.33333V4.66667H3.125V3.33333ZM8.75 12.6667H1.25V6H8.75V12.6667ZM5 10.6667C5.6875 10.6667 6.25 10.0667 6.25 9.33333C6.25 8.6 5.6875 8 5 8C4.3125 8 3.75 8.6 3.75 9.33333C3.75 10.0667 4.3125 10.6667 5 10.6667Z"
        fill="white" />
</svg>