<svg xmlns="http://www.w3.org/2000/svg" width="14" height="14" viewBox="0 0 14 14" fill="none">
  <g clip-path="url(#clip0_425_297)">
    <path
      d="M6.99999 6.43279V10.4028C6.99892 10.7695 6.92383 11.1322 6.77921 11.4692C6.63459 11.8062 6.42342 12.1105 6.15836 12.3639C5.89329 12.6173 5.5798 12.8146 5.23665 12.9439C4.89351 13.0732 4.52779 13.1319 4.16141 13.1165C3.79503 13.1011 3.43554 13.0118 3.10448 12.8541C2.77342 12.6964 2.47762 12.4735 2.23479 12.1987C1.99197 11.9239 1.80712 11.6029 1.69134 11.255C1.57556 10.907 1.53122 10.5393 1.56099 10.1738C0.993986 9.56479 0.635986 8.37379 0.635986 7.37979C0.635986 6.02579 1.30099 4.70879 2.25299 4.18979C2.20141 3.71685 2.29275 3.23931 2.51522 2.81879C2.73769 2.39828 3.08109 2.05408 3.50108 1.83063C3.92108 1.60717 4.39841 1.51472 4.87146 1.56519C5.34452 1.61567 5.79159 1.80675 6.15499 2.11379"
      stroke="black" stroke-linecap="round" stroke-linejoin="round" />
    <path
      d="M3.51096 5.80927C3.16096 5.72927 2.36996 5.20927 2.25096 4.19727M2.28996 8.74627C1.93396 9.02727 1.64996 9.66327 1.55896 10.1733M6.99996 10.4033C7.00102 10.77 7.07611 11.1327 7.22073 11.4697C7.36535 11.8066 7.57652 12.111 7.84159 12.3644C8.10665 12.6178 8.42015 12.815 8.76329 12.9444C9.10644 13.0737 9.47216 13.1324 9.83854 13.117C10.2049 13.1015 10.5644 13.0123 10.8955 12.8546C11.2265 12.6969 11.5223 12.4739 11.7652 12.1992C12.008 11.9244 12.1928 11.6034 12.3086 11.2554C12.4244 10.9075 12.4687 10.5398 12.439 10.1743C13.006 9.56527 13.363 8.37427 13.363 7.38027C13.363 6.94627 13.295 6.51627 13.171 6.11527"
      stroke="black" stroke-linecap="round" stroke-linejoin="round" />
    <path
      d="M11.71 8.74583C12.066 9.02683 12.35 9.66283 12.441 10.1728M7.06401 4.30683C6.71401 4.24483 6.71401 3.74183 7.06401 3.68083C7.68547 3.57234 8.26061 3.28146 8.71629 2.84519C9.17197 2.40892 9.48759 1.84697 9.62301 1.23083L9.64401 1.13383C9.72001 0.786825 10.214 0.783825 10.293 1.13083L10.318 1.24383C10.4578 1.85759 10.776 2.41629 11.2326 2.84958C11.6892 3.28288 12.2638 3.5714 12.884 3.67883C13.237 3.73983 13.237 4.24683 12.884 4.30883C12.2638 4.41625 11.6892 4.70477 11.2326 5.13807C10.776 5.57136 10.4578 6.13006 10.318 6.74382L10.293 6.85582C10.213 7.20182 9.72001 7.19983 9.64401 6.85283L9.62301 6.75682C9.48759 6.14068 9.17197 5.57873 8.71629 5.14246C8.26061 4.70619 7.68547 4.41531 7.06401 4.30683Z"
      stroke="black" stroke-linecap="round" stroke-linejoin="round" />
  </g>
  <defs>
    <clipPath id="clip0_425_297">
      <rect width="14" height="14" fill="white" />
    </clipPath>
  </defs>
</svg>