<svg xmlns="http://www.w3.org/2000/svg" width="3" height="16" viewBox="0 0 3 16" fill="none">
  <path
    d="M0 1.60016C0 1.37614 -1.55065e-07 1.26573 0.0119998 1.17292C0.0501813 0.879621 0.177043 0.607629 0.373319 0.398247C0.569595 0.188865 0.824562 0.0535321 1.0995 0.0128011C1.185 -1.65419e-07 1.29 0 1.5 0C1.71 0 1.8135 -1.65419e-07 1.9005 0.0128011C2.17544 0.0535321 2.4304 0.188865 2.62668 0.398247C2.82296 0.607629 2.94982 0.879621 2.988 1.17292C3 1.26413 3 1.37614 3 1.60016C3 1.82418 3 1.93459 2.988 2.0274C2.94982 2.3207 2.82296 2.59269 2.62668 2.80207C2.4304 3.01146 2.17544 3.14679 1.9005 3.18752C1.815 3.20032 1.71 3.20032 1.5 3.20032C1.29 3.20032 1.1865 3.20032 1.0995 3.18752C0.824562 3.14679 0.569595 3.01146 0.373319 2.80207C0.177043 2.59269 0.0501813 2.3207 0.0119998 2.0274C-1.55065e-07 1.93619 0 1.82418 0 1.60016ZM0 8.0008C0 7.77678 -1.55065e-07 7.66637 0.0119998 7.57356C0.0501813 7.28026 0.177043 7.00827 0.373319 6.79889C0.569595 6.58951 0.824562 6.45417 1.0995 6.41344C1.185 6.40064 1.29 6.40064 1.5 6.40064C1.71 6.40064 1.8135 6.40064 1.9005 6.41344C2.17544 6.45417 2.4304 6.58951 2.62668 6.79889C2.82296 7.00827 2.94982 7.28026 2.988 7.57356C3 7.66477 3 7.77678 3 8.0008C3 8.22482 3 8.33523 2.988 8.42804C2.94982 8.72134 2.82296 8.99333 2.62668 9.20271C2.4304 9.4121 2.17544 9.54743 1.9005 9.58816C1.815 9.60096 1.71 9.60096 1.5 9.60096C1.29 9.60096 1.1865 9.60096 1.0995 9.58816C0.824562 9.54743 0.569595 9.4121 0.373319 9.20271C0.177043 8.99333 0.0501813 8.72134 0.0119998 8.42804C-1.55065e-07 8.33683 0 8.22482 0 8.0008ZM0 14.4014C0 14.179 -1.55065e-07 14.067 0.0119998 13.9742C0.0504049 13.6814 0.177181 13.41 0.373135 13.2009C0.56909 12.9919 0.823553 12.8567 1.098 12.8157C1.1865 12.8029 1.29 12.8029 1.4985 12.8029C1.707 12.8029 1.8135 12.8029 1.899 12.8157C2.17345 12.8567 2.42791 12.9919 2.62386 13.2009C2.81982 13.41 2.94659 13.6814 2.985 13.9742C2.997 14.067 2.997 14.179 2.997 14.4014C2.997 14.6239 2.997 14.7359 2.985 14.8287C2.94659 15.1215 2.81982 15.3929 2.62386 15.602C2.42791 15.811 2.17345 15.9462 1.899 15.9872C1.812 16 1.707 16 1.4985 16C1.29 16 1.185 16 1.098 15.9872C0.823553 15.9462 0.56909 15.811 0.373135 15.602C0.177181 15.3929 0.0504049 15.1215 0.0119998 14.8287C-1.55065e-07 14.7359 0 14.6239 0 14.4014Z"
    fill="black" />
</svg>