<svg width="32" height="32" viewBox="0 0 32 32" fill="none" xmlns="http://www.w3.org/2000/svg">
<rect x="1.5" y="1.5" width="29" height="29" rx="14.5" fill="#FFF9E6"/>
<rect x="1.5" y="1.5" width="29" height="29" rx="14.5" stroke="white" stroke-width="3"/>
<path d="M22.8571 17.1429H17.1429V22.8571C17.1429 23.4857 16.6286 24 16 24C15.3714 24 14.8571 23.4857 14.8571 22.8571V17.1429H9.14286C8.51429 17.1429 8 16.6286 8 16C8 15.3714 8.51429 14.8571 9.14286 14.8571H14.8571V9.14286C14.8571 8.51429 15.3714 8 16 8C16.6286 8 17.1429 8.51429 17.1429 9.14286V14.8571H22.8571C23.4857 14.8571 24 15.3714 24 16C24 16.6286 23.4857 17.1429 22.8571 17.1429Z" fill="black"/>
</svg>
