<svg xmlns="http://www.w3.org/2000/svg" width="14" height="14" viewBox="0 0 14 14" fill="none">
    <g clip-path="url(#clip0_425_292)">
        <path
            d="M2.33337 8.16699V10.7337C2.33337 10.8265 2.37025 10.9155 2.43589 10.9811C2.50152 11.0468 2.59055 11.0837 2.68337 11.0837H5.83337M11.0834 8.16699V10.7337C11.0834 10.8265 11.0465 10.9155 10.9809 10.9811C10.9152 11.0468 10.8262 11.0837 10.7334 11.0837H8.16671M8.16671 2.91699H10.7334C10.8262 2.91699 10.9152 2.95387 10.9809 3.0195C11.0465 3.08514 11.0834 3.17417 11.0834 3.26699V5.83366M2.33337 5.83366V3.26699C2.33337 3.17417 2.37025 3.08514 2.43589 3.0195C2.50152 2.95387 2.59055 2.91699 2.68337 2.91699H5.83337M8.16671 11.0837V11.667C8.16671 11.9764 8.04379 12.2732 7.825 12.492C7.60621 12.7107 7.30946 12.8337 7.00004 12.8337C6.69062 12.8337 6.39388 12.7107 6.17508 12.492C5.95629 12.2732 5.83337 11.9764 5.83337 11.667V11.0837M2.33337 5.83366H2.91671C3.22613 5.83366 3.52287 5.95658 3.74167 6.17537C3.96046 6.39416 4.08337 6.69091 4.08337 7.00033C4.08337 7.30975 3.96046 7.60649 3.74167 7.82528C3.52287 8.04408 3.22613 8.16699 2.91671 8.16699H2.33337M11.0834 5.83366H11.6667C11.9761 5.83366 12.2729 5.95658 12.4917 6.17537C12.7105 6.39416 12.8334 6.69091 12.8334 7.00033C12.8334 7.30975 12.7105 7.60649 12.4917 7.82528C12.2729 8.04408 11.9761 8.16699 11.6667 8.16699H11.0834M8.16671 2.91699V2.33366C8.16671 2.02424 8.04379 1.72749 7.825 1.5087C7.60621 1.28991 7.30946 1.16699 7.00004 1.16699C6.69062 1.16699 6.39388 1.28991 6.17508 1.5087C5.95629 1.72749 5.83337 2.02424 5.83337 2.33366V2.91699"
            stroke="black" stroke-width="1.5" stroke-linecap="round" stroke-linejoin="round" />
    </g>
    <defs>
        <clipPath id="clip0_425_292">
            <rect width="14" height="14" fill="white" />
        </clipPath>
    </defs>
</svg>