<svg width="16" height="16" viewBox="0 0 16 16" fill="none" xmlns="http://www.w3.org/2000/svg">
<g clip-path="url(#clip0_882_723)">
<path d="M2.1816 1.0912C1.5792 1.0912 1.0912 1.5792 1.0912 2.1816V13.8184C1.0912 14.4208 1.5792 14.9088 2.1816 14.9088H13.8184C14.4208 14.9088 14.9088 14.4208 14.9088 13.8184V2.1816C14.9088 1.5792 14.4208 1.0912 13.8184 1.0912H2.1816ZM13.8184 0C14.397 0 14.9519 0.229846 15.361 0.638976C15.7702 1.04811 16 1.603 16 2.1816V13.8184C16 14.397 15.7702 14.9519 15.361 15.361C14.9519 15.7702 14.397 16 13.8184 16H2.1816C1.603 16 1.04811 15.7702 0.638976 15.361C0.229846 14.9519 0 14.397 0 13.8184L0 2.1816C0 1.603 0.229846 1.04811 0.638976 0.638976C1.04811 0.229846 1.603 0 2.1816 0L13.8184 0ZM11.164 1.948C11.0923 1.94779 11.0212 1.96176 10.955 1.9891C10.8887 2.01645 10.8284 2.05663 10.7777 2.10733C10.727 2.15804 10.6868 2.21827 10.6595 2.28456C10.6322 2.35085 10.6182 2.42189 10.6184 2.4936V4C10.6184 4.1447 10.6759 4.28348 10.7782 4.3858C10.8805 4.48812 11.0193 4.5456 11.164 4.5456C11.3087 4.5456 11.4475 4.48812 11.5498 4.3858C11.6521 4.28348 11.7096 4.1447 11.7096 4V2.4936C11.7098 2.42189 11.6958 2.35085 11.6685 2.28456C11.6412 2.21827 11.601 2.15804 11.5503 2.10733C11.4996 2.05663 11.4393 2.01645 11.373 1.9891C11.3068 1.96176 11.2357 1.94779 11.164 1.948ZM2.1952 0.752L3.2856 0.7568L3.2688 4.3136C3.2448 4.6384 3.3488 4.9008 3.6008 5.1432C3.8512 5.384 4.196 5.4936 4.708 5.4632L11.608 5.4664C11.9936 5.4224 12.2648 5.296 12.448 5.0912C12.6304 4.8856 12.7248 4.6088 12.724 4.2328V0.7536H13.8152V4.2312C13.816 4.8624 13.6336 5.3992 13.2616 5.8168C12.8896 6.2344 12.3704 6.4768 11.6696 6.5528H4.7416C3.9744 6.6 3.3296 6.3952 2.8448 5.9288C2.3616 5.4648 2.1328 4.8856 2.1792 4.2712L2.1952 0.752Z" fill="black"/>
</g>
<defs>
<clipPath id="clip0_882_723">
<rect width="16" height="16" fill="white"/>
</clipPath>
</defs>
</svg>
