<svg xmlns="http://www.w3.org/2000/svg" width="16" height="16" viewBox="0 0 16 16" fill="none">
    <path
        d="M4 1C3.20435 1 2.44129 1.31607 1.87868 1.87868C1.31607 2.44129 1 3.20435 1 4V12C1 12.7956 1.31607 13.5587 1.87868 14.1213C2.44129 14.6839 3.20435 15 4 15H12C12.7956 15 13.5587 14.6839 14.1213 14.1213C14.6839 13.5587 15 12.7956 15 12V4C15 3.20435 14.6839 2.44129 14.1213 1.87868C13.5587 1.31607 12.7956 1 12 1H4ZM2 4C2 3.46957 2.21071 2.96086 2.58579 2.58579C2.96086 2.21071 3.46957 2 4 2H12C12.5304 2 13.0391 2.21071 13.4142 2.58579C13.7893 2.96086 14 3.46957 14 4H2ZM2 5H14V12C14 12.5304 13.7893 13.0391 13.4142 13.4142C13.0391 13.7893 12.5304 14 12 14H4C3.46957 14 2.96086 13.7893 2.58579 13.4142C2.21071 13.0391 2 12.5304 2 12V5Z"
        fill="black" />
</svg>