<svg width="24" height="24" viewBox="0 0 24 24" fill="none" xmlns="http://www.w3.org/2000/svg">
<path d="M15.25 9.99967C15.25 8.60728 14.6969 7.27192 13.7123 6.28736C12.7278 5.30279 11.3924 4.74967 10 4.74967C8.60762 4.74967 7.27226 5.30279 6.2877 6.28736C5.30313 7.27192 4.75001 8.60728 4.75001 9.99967C4.75001 11.3921 5.30313 12.7274 6.2877 13.712C7.27226 14.6965 8.60762 15.2497 10 15.2497C11.3924 15.2497 12.7278 14.6965 13.7123 13.712C14.6969 12.7274 15.25 11.3921 15.25 9.99967ZM16.75 9.99967C16.7519 11.5309 16.2309 13.017 15.273 14.2117L20.53 19.4697C20.6037 19.5383 20.6628 19.6211 20.7038 19.7131C20.7448 19.8051 20.7668 19.9044 20.7686 20.0051C20.7704 20.1058 20.7519 20.2059 20.7141 20.2993C20.6764 20.3927 20.6203 20.4775 20.549 20.5487C20.4778 20.6199 20.393 20.6761 20.2996 20.7138C20.2062 20.7515 20.1062 20.77 20.0055 20.7683C19.9048 20.7665 19.8055 20.7444 19.7135 20.7034C19.6215 20.6625 19.5387 20.6034 19.47 20.5297L14.212 15.2727C13.0169 16.227 11.5331 16.7472 10.0037 16.7481C8.47424 16.7489 6.98988 16.2303 5.79372 15.2772C4.59756 14.3242 3.76052 12.9931 3.41972 11.5022C3.07892 10.0112 3.25456 8.44869 3.91786 7.0706C4.58117 5.6925 5.69282 4.58051 7.07071 3.91679C8.44861 3.25307 10.0111 3.07696 11.5021 3.41731C12.9932 3.75767 14.3245 4.5943 15.2779 5.79017C16.2313 6.98604 16.7504 8.47025 16.75 9.99967Z" fill="black"/>
</svg>
