<svg xmlns="http://www.w3.org/2000/svg" width="16" height="16" viewBox="0 0 16 16" fill="none">
    <g clip-path="url(#clip0_425_310)">
        <path
            d="M7.99665 15.9996C10.1842 15.9996 12.3718 15.9996 14.5594 15.9996C15.3197 15.9996 15.96 15.4656 15.98 14.7247C16.0133 13.1494 15.9933 11.5741 15.9933 9.99875C15.9933 9.77847 15.8132 9.63162 15.5998 9.6383C15.3931 9.64497 15.2397 9.79182 15.2263 10.0054C15.2263 10.0588 15.2263 10.1122 15.2263 10.1656C15.2263 11.6008 15.2263 13.0359 15.2263 14.471C15.2263 14.9716 14.9729 15.2253 14.4727 15.2253C10.1575 15.2253 5.83575 15.2253 1.52062 15.2253C1.02041 15.2253 0.76697 14.9716 0.76697 14.471C0.76697 13.0159 0.76697 11.554 0.76697 10.0989C0.76697 9.81852 0.626911 9.64497 0.393481 9.64497C0.16005 9.64497 0.0133223 9.81185 0.00665283 10.0922C0.00665283 10.1189 0.00665283 10.1389 0.00665283 10.1656C0.00665283 11.6074 0.00665283 13.0492 0.00665283 14.4844C0.00665283 14.6312 0.0133223 14.7781 0.0466695 14.9182C0.200067 15.5791 0.746961 15.9996 1.45392 16.0063C3.63483 15.9996 5.81574 15.9996 7.99665 15.9996ZM7.60982 1.19441C7.60982 1.30789 7.60982 1.38131 7.60982 1.44806C7.60982 4.84564 7.60982 8.24322 7.60982 11.6341C7.60982 11.7142 7.60982 11.801 7.62983 11.8811C7.66985 12.0547 7.8099 12.1615 7.98331 12.1681C8.16338 12.1748 8.31011 12.068 8.3568 11.8811C8.37681 11.801 8.37681 11.7209 8.37681 11.6408C8.37681 8.22987 8.37681 4.82562 8.37681 1.41469C8.37681 1.34794 8.37681 1.28119 8.37681 1.18106C8.4435 1.23446 8.49019 1.26116 8.52353 1.29454C9.22383 1.86191 9.91745 2.43596 10.6177 3.01001C11.0046 3.33041 11.3981 3.65081 11.7849 3.96454C11.9383 4.09137 12.1117 4.10472 12.2584 4.01127C12.4118 3.91114 12.4652 3.76429 12.4118 3.59741C12.3718 3.50396 12.2918 3.40384 12.2117 3.33709C10.9045 2.26909 9.59732 1.20776 8.2901 0.146434C8.04333 -0.0538164 7.90995 -0.0538164 7.65651 0.153109C6.68277 0.947435 5.70236 1.74176 4.72862 2.53609C4.38848 2.80976 4.04167 3.08344 3.70819 3.36379C3.54813 3.49729 3.51478 3.69086 3.60148 3.85774C3.68819 4.01794 3.87493 4.11139 4.04834 4.04464C4.14171 4.01126 4.22841 3.93784 4.30844 3.87776C5.10211 3.23696 5.8891 2.59616 6.6761 1.94869C6.97622 1.70839 7.27635 1.46141 7.60982 1.19441Z"
            fill="white" />
        <path
            d="M7.99667 16C5.81576 16 3.63485 16 1.45394 16C0.746978 16 0.200083 15.5795 0.0466861 14.912C0.00666945 14.7718 0 14.6183 0 14.4781C0 13.0363 0 11.5945 0 10.1594C0 10.1327 0 10.1127 0 10.086C0.00666945 9.8056 0.153397 9.63873 0.386828 9.63873C0.620258 9.63873 0.760317 9.81228 0.760317 10.0926C0.760317 11.5478 0.760317 13.0096 0.760317 14.4648C0.760317 14.9721 1.01376 15.219 1.51396 15.219C5.8291 15.219 10.1509 15.219 14.466 15.219C14.9662 15.219 15.2197 14.9654 15.2197 14.4648C15.2197 13.0296 15.2197 11.5945 15.2197 10.1594C15.2197 10.106 15.2197 10.0526 15.2197 9.99918C15.233 9.78558 15.3864 9.63873 15.5932 9.63205C15.8066 9.62538 15.9867 9.77223 15.9867 9.99251C15.9933 11.5678 16.0067 13.1431 15.9733 14.7184C15.96 15.4593 15.3197 15.9933 14.5527 15.9933C12.3718 16 10.1842 16 7.99667 16Z"
            fill="black" />
        <path
            d="M7.60986 1.19457C7.27639 1.46157 6.98293 1.70187 6.68281 1.94885C5.88915 2.58965 5.10215 3.23712 4.30849 3.87793C4.22845 3.94468 4.14175 4.01143 4.04838 4.0448C3.87497 4.10488 3.68823 4.0181 3.60153 3.8579C3.51482 3.69103 3.54817 3.49745 3.70824 3.36395C4.04171 3.0836 4.38852 2.80992 4.72866 2.53625C5.7024 1.74192 6.68281 0.947596 7.65655 0.159945C7.90999 -0.0469805 8.04338 -0.0469805 8.29015 0.15327C9.59736 1.20792 10.9112 2.26925 12.2118 3.33725C12.2918 3.404 12.3718 3.49745 12.4052 3.59758C12.4585 3.75778 12.4052 3.9113 12.2518 4.01143C12.1051 4.10488 11.9317 4.09153 11.7783 3.9647C11.3848 3.65098 10.9979 3.33057 10.6111 3.01017C9.91082 2.43612 9.2172 1.86875 8.51691 1.2947C8.47689 1.26132 8.43687 1.23462 8.37018 1.18122C8.37018 1.28135 8.37018 1.3481 8.37018 1.41485C8.37018 4.82578 8.37018 8.23003 8.37018 11.641C8.37018 11.7211 8.37018 11.8078 8.35017 11.8813C8.31015 12.0615 8.15676 12.1683 7.97668 12.1683C7.80328 12.1616 7.66322 12.0548 7.6232 11.8813C7.60319 11.8012 7.60319 11.7211 7.60319 11.6343C7.60319 8.23671 7.60319 4.83913 7.60319 1.44822C7.60986 1.38147 7.60986 1.31472 7.60986 1.19457Z"
            fill="black" />
    </g>
    <defs>
        <clipPath id="clip0_425_310">
            <rect width="16" height="16" fill="white" />
        </clipPath>
    </defs>
</svg>