<svg xmlns="http://www.w3.org/2000/svg" width="13" height="16" viewBox="0 0 13 16" fill="none">
    <path
        d="M12.4502 6.77246L12.4863 6.80957C12.4945 6.83017 12.4999 6.85302 12.5 6.87695C12.5001 6.92603 12.4808 6.9703 12.4512 7.00098C12.422 7.03116 12.3857 7.04573 12.3506 7.0459C12.3331 7.04596 12.315 7.04237 12.2979 7.03516L12.249 7.00195L7.53906 2.19629L6.68164 1.32227V15.332C6.68155 15.381 6.66244 15.4256 6.63281 15.4561C6.60367 15.4859 6.56714 15.4999 6.53223 15.5C6.49733 15.5 6.46081 15.4858 6.43164 15.4561C6.40202 15.4256 6.38291 15.381 6.38281 15.332V1.32227L5.52539 2.19629L0.81543 7.00195L0.788086 7.0293L0.765625 7.05957C0.751727 7.07891 0.735021 7.0941 0.716797 7.10449C0.698645 7.11483 0.67936 7.12053 0.660156 7.12207C0.640955 7.12361 0.621316 7.12131 0.602539 7.11426C0.583727 7.10718 0.565753 7.09528 0.549805 7.0791C0.533799 7.06287 0.520539 7.04234 0.511719 7.01855C0.502921 6.99477 0.49838 6.9685 0.5 6.94238C0.501667 6.91648 0.509212 6.89189 0.520508 6.87012C0.531922 6.8482 0.547202 6.82992 0.564453 6.81641L0.59082 6.7959L0.613281 6.77246L6.53125 0.714844L12.4502 6.77246Z"
        fill="black" stroke="black" />
</svg>