<svg xmlns="http://www.w3.org/2000/svg" width="10" height="12" viewBox="0 0 10 12" fill="none">
    <path
        d="M9.223 6.70429L4.7037 11.2002L0.184402 6.70429C0.131081 6.66369 0.0871066 6.6121 0.0554558 6.55302C0.023805 6.49395 0.00521681 6.42876 0.000949371 6.36187C-0.00331807 6.29499 0.00683517 6.22797 0.0307214 6.16535C0.0546076 6.10273 0.0916693 6.04597 0.139397 5.99892C0.187126 5.95187 0.244406 5.91562 0.307361 5.89263C0.370315 5.86964 0.437474 5.86045 0.504291 5.86567C0.571108 5.87089 0.636023 5.89041 0.694642 5.9229C0.75326 5.95539 0.804213 6.0001 0.844051 6.054L4.23586 9.41774V0.468032C4.23586 0.343954 4.28515 0.224958 4.37289 0.137222C4.46063 0.0494862 4.57962 0.000195503 4.7037 0.000195503C4.82778 0.000195503 4.94677 0.0494862 5.03451 0.137222C5.12225 0.224958 5.17154 0.343954 5.17154 0.468032V9.41774L8.56335 6.054C8.65145 5.96652 8.77068 5.91763 8.89483 5.91806C9.01898 5.9185 9.13786 5.96824 9.22534 6.05634C9.31281 6.14443 9.36171 6.26367 9.36127 6.38781C9.36083 6.51196 9.31109 6.63085 9.223 6.71832V6.70429Z"
        fill="white" />
</svg>